<?xml version="1.0" encoding="iso-8859-1"?>
<!-- Generator: Adobe Illustrator 19.0.0, SVG Export Plug-In . SVG Version: 6.00 Build 0)  -->
<svg version="1.1" id="Capa_1" xmlns="http://www.w3.org/2000/svg" xmlns:xlink="http://www.w3.org/1999/xlink" x="0px" y="0px"
	 viewBox="0 0 512.001 512.001" style="enable-background:new 0 0 512.001 512.001;" xml:space="preserve">
<path style="fill:#C70024;" d="M401.148,273.662h0.291L285.591,478.323l-7.515,13.272c-4.863,8.58-13.473,12.87-22.083,12.87
	s-17.22-4.29-22.083-12.87L110.548,273.662h0.291c-17.511-27.146-27.628-59.507-27.478-94.238
	C83.763,84.292,160.731,7.625,255.833,7.535h0.161c95.343,0,172.632,77.289,172.632,172.632
	C428.627,214.628,418.53,246.717,401.148,273.662z"/>
<path style="fill:#FF0C38;" d="M401.148,273.662h0.291L285.591,478.323L164.79,264.932h0.301
	c-17.511-27.146-27.628-59.507-27.478-94.238c0.322-76.164,49.721-140.503,118.22-163.158h0.161
	c95.343,0,172.632,77.289,172.632,172.632C428.627,214.628,418.53,246.717,401.148,273.662z"/>
<path style="fill:#A5001E;" d="M388.953,182.689c0,63.596-44.658,116.773-104.325,129.864c-9.223,2.029-18.807,3.094-28.633,3.094
	c-73.431,0-132.958-59.527-132.958-132.958S182.562,49.731,255.994,49.731c9.826,0,19.41,1.065,28.633,3.094
	C344.295,65.916,388.953,119.094,388.953,182.689z"/>
<path style="fill:#C70024;" d="M388.953,182.689c0,63.596-44.658,116.773-104.325,129.864
	c-59.677-13.091-104.335-66.268-104.335-129.864S224.95,65.916,284.628,52.826C344.295,65.916,388.953,119.094,388.953,182.689z"/>
<path d="M255.996,0c-47.793,0-92.792,18.461-126.708,51.983C95.39,85.488,76.407,130.23,75.837,177.968
	c-0.05,4.162,3.283,7.575,7.444,7.624c0.031,0.001,0.062,0.001,0.092,0.001c4.12,0,7.483-3.314,7.532-7.445
	C91.98,88.227,166.039,15.07,255.996,15.07c91.035,0.001,165.098,74.065,165.098,165.1c0,31.845-9.088,62.761-26.281,89.402
	c-0.446,0.691-0.77,1.439-0.967,2.211l-26.004,45.938c-2.051,3.621-0.777,8.219,2.845,10.269c1.172,0.664,2.447,0.98,3.705,0.98
	c2.626,0,5.178-1.375,6.564-3.825L408,277.369c0.26-0.459,0.469-0.939,0.625-1.432c18.023-28.668,27.539-61.733,27.539-95.767
	C436.165,80.825,355.342,0.001,255.996,0z"/>
<path d="M363.263,341.106c-3.62-2.051-8.218-0.776-10.269,2.845l-81.478,143.93c-3.207,5.667-9.01,9.05-15.522,9.05
	c-6.512,0-12.317-3.383-15.525-9.05L118.143,271.784c-0.198-0.774-0.521-1.521-0.967-2.211
	c-12.363-19.158-20.483-40.254-24.133-62.701c-0.667-4.107-4.527-6.901-8.646-6.227c-4.107,0.667-6.895,4.539-6.227,8.646
	c3.871,23.805,12.344,46.218,25.194,66.649c0.157,0.491,0.365,0.972,0.625,1.431l123.368,217.935
	c5.919,10.454,16.625,16.696,28.639,16.696c12.014,0,22.72-6.242,28.637-16.697l81.477-143.93
	C368.159,347.753,366.885,343.155,363.263,341.106z"/>
<path d="M171.093,70.739c-35.331,26.833-55.594,67.636-55.594,111.949c0,77.469,63.026,140.496,140.496,140.496
	s140.496-63.026,140.496-140.496S333.464,42.193,255.994,42.193c-20.063,0-39.443,4.143-57.6,12.313
	c-3.795,1.708-5.486,6.17-3.78,9.964c1.708,3.796,6.171,5.485,9.964,3.78c16.199-7.291,33.498-10.987,51.415-10.987
	c69.16,0,125.426,56.266,125.426,125.425c0,69.16-56.266,125.426-125.426,125.426s-125.426-56.266-125.426-125.426
	c0-39.56,18.093-75.989,49.639-99.948c3.314-2.517,3.959-7.244,1.444-10.558C179.134,68.87,174.409,68.22,171.093,70.739z"/>
<path d="M330.131,204.148c2.058,0,4.114-0.785,5.683-2.354c3.139-3.14,3.139-8.227,0-11.367
	c-21.322-21.321-49.669-33.063-79.821-33.063s-58.5,11.743-79.821,33.063c-3.139,3.14-3.139,8.227,0,11.367
	c3.14,3.138,8.227,3.138,11.367,0c37.745-37.745,99.162-37.745,136.907,0C326.018,203.363,328.075,204.148,330.131,204.148z"/>
<path d="M205.908,227.807c-3.139,3.14-3.139,8.227,0,11.367c3.14,3.138,8.227,3.138,11.367,0c21.349-21.351,56.089-21.351,77.438,0
	c1.57,1.569,3.626,2.354,5.683,2.354c2.058,0,4.114-0.785,5.683-2.354c3.139-3.14,3.139-8.227,0-11.367
	C278.462,200.191,233.526,200.191,205.908,227.807z"/>
<path d="M352.796,172.593c1.588,1.798,3.803,2.717,6.027,2.717c1.891,0,3.789-0.663,5.318-2.013
	c3.327-2.939,3.642-8.017,0.703-11.345c-28.482-32.247-66.573-50.701-107.259-51.961c-40.868-1.281-79.978,14.625-110.101,44.747
	c-3.139,3.14-3.139,8.227,0,11.367c3.14,3.138,8.227,3.138,11.367,0c26.951-26.951,61.821-41.158,98.235-40.047
	C293.292,127.18,327.282,143.706,352.796,172.593z"/>
<g>
</g>
<g>
</g>
<g>
</g>
<g>
</g>
<g>
</g>
<g>
</g>
<g>
</g>
<g>
</g>
<g>
</g>
<g>
</g>
<g>
</g>
<g>
</g>
<g>
</g>
<g>
</g>
<g>
</g>
</svg>
